<?xml version="1.0" standalone="no"?>
<!DOCTYPE svg PUBLIC "-//W3C//DTD SVG 20010904//EN"
 "http://www.w3.org/TR/2001/REC-SVG-20010904/DTD/svg10.dtd">
<svg version="1.0" xmlns="http://www.w3.org/2000/svg"
 width="1208.000000pt" height="1208.000000pt" viewBox="0 0 1208.000000 1208.000000"
 preserveAspectRatio="xMidYMid meet">
<metadata>
Created by potrace 1.11, written by Peter Selinger 2001-2013
</metadata>
<g transform="translate(0.000000,1208.000000) scale(0.100000,-0.100000)"
fill="#000000" stroke="none">
<path d="M2835 9485 c-334 -87 -650 -215 -939 -382 -60 -35 -110 -63 -113 -63
-2 0 -9 -5 -16 -10 -7 -6 -43 -31 -82 -57 -69 -45 -246 -174 -275 -200 -8 -8
-25 -21 -36 -31 -108 -87 -379 -349 -439 -424 -11 -14 -36 -44 -55 -68 -19
-24 -56 -68 -81 -99 -25 -31 -54 -69 -64 -86 -11 -16 -22 -32 -26 -35 -22 -18
-229 -350 -229 -368 0 -6 -3 -12 -8 -14 -11 -4 -172 -334 -172 -353 0 -3 -9
-24 -19 -48 -10 -23 -31 -76 -46 -117 -15 -41 -29 -82 -32 -90 -4 -8 -7 -17
-8 -20 0 -3 -9 -32 -20 -65 -23 -74 -23 -74 -30 -107 -3 -15 -9 -38 -15 -52
-5 -13 -6 -27 -3 -30 4 -3 2 -6 -3 -6 -5 0 -10 -8 -10 -17 -1 -10 -13 -74 -27
-143 -25 -120 -38 -193 -43 -235 -1 -11 -5 -45 -9 -75 -5 -30 -8 -73 -9 -95
-1 -22 -4 -44 -8 -50 -7 -12 -3 -611 5 -641 3 -11 8 -52 11 -90 4 -38 9 -82
12 -99 3 -16 7 -43 9 -60 7 -51 34 -189 51 -256 8 -35 18 -75 21 -89 2 -14 7
-32 10 -40 3 -8 7 -19 8 -25 17 -70 79 -262 101 -312 8 -17 14 -35 14 -40 1
-4 9 -26 20 -48 11 -22 19 -43 20 -47 1 -21 161 -346 192 -391 11 -15 16 -27
11 -27 -4 0 -3 -4 3 -8 6 -4 19 -22 29 -41 9 -19 21 -39 26 -45 5 -6 41 -60
81 -121 102 -156 206 -289 349 -447 89 -98 223 -228 328 -318 29 -25 59 -51
66 -57 8 -7 16 -13 19 -13 3 0 14 -8 24 -18 24 -23 132 -105 202 -152 12 -8
28 -21 36 -27 7 -7 15 -13 17 -13 3 0 49 -28 102 -61 77 -48 100 -59 106 -48
21 33 235 403 263 454 6 11 13 22 16 25 3 3 14 23 25 44 11 22 25 44 30 50 6
6 15 23 22 37 11 26 10 28 -74 80 -48 30 -92 59 -98 64 -6 6 -18 15 -27 20
-225 144 -539 454 -733 725 -22 30 -43 57 -47 58 -5 2 -6 8 -2 13 3 5 0 9 -5
9 -6 0 -11 6 -11 14 0 8 -3 16 -7 18 -11 4 -113 174 -113 187 0 6 -4 11 -10
11 -5 0 -10 4 -10 10 0 5 -21 52 -46 102 -72 145 -181 433 -198 523 -2 11 -7
27 -10 35 -3 8 -8 26 -11 40 -4 23 -16 77 -30 140 -3 14 -8 43 -11 65 -11 71
-12 79 -18 121 -11 69 -17 144 -21 259 -2 61 -4 115 -5 120 -2 6 -2 12 -1 15
1 3 4 61 7 130 3 69 6 136 8 150 1 14 6 57 11 95 4 39 9 79 11 90 2 11 6 34 9
50 8 45 15 81 40 195 2 8 4 15 5 15 1 0 3 9 5 19 2 11 6 29 9 40 3 12 6 26 7
31 3 23 93 274 115 324 14 29 26 58 27 63 10 46 245 469 276 498 4 3 21 28 40
55 19 28 42 58 50 67 28 30 41 47 41 53 0 3 13 19 30 35 17 16 30 31 30 34 0
21 318 336 339 336 6 0 11 4 11 9 0 5 35 35 78 67 42 33 79 61 82 64 3 3 39
28 80 55 41 28 77 52 80 55 21 23 414 230 437 230 3 0 19 7 36 15 44 20 256
96 286 101 13 3 34 10 45 16 12 6 22 11 24 10 19 -14 22 35 22 383 0 360 -1
385 -17 385 -10 -1 -76 -16 -148 -35z"/>
<path d="M9080 9096 l0 -385 58 -18 c31 -9 59 -17 62 -18 23 -4 184 -61 220
-77 24 -11 49 -21 55 -23 48 -11 304 -142 412 -211 29 -19 56 -34 59 -34 2 0
10 -5 17 -10 7 -6 58 -44 113 -83 56 -40 109 -80 117 -88 9 -7 33 -27 53 -44
73 -57 219 -198 297 -286 26 -30 56 -63 66 -74 56 -61 241 -316 241 -331 0 -4
6 -15 14 -23 19 -21 126 -212 165 -296 27 -56 125 -298 136 -335 1 -3 11 -37
23 -76 17 -56 52 -185 66 -249 4 -15 19 -107 22 -130 1 -11 3 -20 4 -20 3 0 9
-39 15 -95 3 -30 9 -75 12 -100 4 -37 7 -81 14 -215 2 -37 -11 -355 -15 -374
-3 -13 -8 -47 -11 -75 -5 -52 -8 -70 -26 -166 -6 -30 -12 -64 -14 -75 -5 -26
-13 -63 -19 -83 -3 -9 -7 -28 -10 -42 -3 -14 -14 -56 -26 -95 -12 -38 -26 -86
-32 -105 -13 -44 -73 -198 -104 -268 -13 -29 -24 -57 -24 -62 0 -6 -4 -10 -10
-10 -5 0 -10 -9 -10 -20 0 -11 -4 -20 -8 -20 -5 0 -9 -6 -9 -12 0 -7 -14 -37
-32 -66 -17 -29 -31 -55 -31 -59 0 -7 -84 -142 -129 -208 -50 -74 -105 -149
-111 -155 -3 -3 -13 -15 -21 -27 -52 -76 -337 -372 -428 -443 -24 -19 -58 -47
-75 -62 -17 -15 -34 -28 -37 -28 -3 0 -17 -10 -30 -21 -21 -18 -52 -41 -117
-84 -8 -5 -43 -28 -77 -50 -34 -22 -69 -44 -78 -50 -18 -12 -15 -20 44 -115
22 -36 49 -84 60 -108 11 -23 24 -42 29 -42 6 0 10 -8 10 -17 0 -9 6 -24 14
-32 7 -9 28 -43 46 -76 17 -33 36 -64 40 -70 9 -10 73 -123 92 -162 12 -24 38
-38 47 -26 9 12 111 73 122 73 5 0 9 5 9 10 0 6 6 10 14 10 8 0 16 3 18 8 2 4
32 27 68 51 36 25 67 48 68 53 2 4 8 8 14 8 9 0 76 50 128 98 14 12 28 22 31
22 3 0 17 10 31 23 14 12 55 49 92 82 77 68 267 260 318 320 18 21 40 46 48
55 33 35 84 100 151 190 38 52 76 103 84 113 8 9 15 21 15 26 0 5 6 16 13 23
12 13 48 64 57 83 3 6 31 53 63 107 31 53 57 101 57 106 0 6 3 12 8 14 7 3 35
59 105 208 17 36 32 67 32 70 0 3 11 27 23 54 12 27 22 54 22 60 0 7 4 16 9
21 5 6 19 42 31 80 13 39 27 76 33 83 5 6 7 12 4 12 -4 0 1 19 9 43 9 23 17
49 19 57 3 8 16 58 30 110 14 52 30 115 35 140 5 25 12 56 15 70 21 103 42
235 50 320 3 25 8 68 11 95 4 28 7 172 8 320 1 305 -6 403 -44 635 -16 97 -19
114 -35 185 -9 39 -18 78 -20 88 -2 10 -6 26 -9 35 -3 9 -7 28 -10 42 -2 14
-9 37 -15 53 -6 15 -8 27 -5 27 4 0 2 6 -4 13 -6 7 -12 24 -14 37 -2 14 -9 35
-16 46 -6 12 -9 24 -5 27 3 4 1 13 -5 20 -7 7 -13 22 -15 33 -2 10 -11 36 -20
58 -9 21 -17 41 -17 45 0 8 -56 146 -79 196 -69 147 -107 222 -117 235 -7 8
-12 17 -11 20 2 7 -121 218 -150 256 -13 17 -23 36 -23 42 0 7 -3 12 -7 12 -5
1 -24 25 -43 55 -19 30 -38 55 -42 55 -5 0 -8 5 -8 11 0 14 -105 148 -223 283
-95 108 -278 287 -392 383 -28 23 -60 50 -72 60 -11 10 -31 25 -44 33 -12 8
-30 22 -38 30 -9 8 -34 27 -56 42 -22 15 -60 42 -85 59 -60 43 -209 136 -290
181 -150 83 -450 224 -450 211 0 -3 -6 -1 -12 5 -11 9 -221 85 -268 97 -8 3
-49 14 -90 26 -75 21 -138 37 -175 43 -11 2 -32 7 -47 11 l-28 7 0 -386z"/>
<path d="M2946 7945 c-15 -8 -33 -15 -39 -15 -13 0 -290 -139 -297 -149 -3 -4
-12 -10 -20 -13 -26 -10 -210 -140 -210 -149 0 -5 -6 -9 -12 -9 -12 -1 -48
-31 -168 -144 -62 -59 -175 -184 -218 -241 -4 -6 -25 -35 -48 -65 -83 -112
-246 -409 -258 -470 -1 -3 -4 -9 -7 -15 -5 -8 -29 -75 -34 -95 -1 -3 -4 -12
-8 -20 -11 -29 -36 -115 -47 -160 -6 -25 -13 -54 -15 -65 -3 -11 -7 -31 -10
-45 -3 -14 -7 -36 -10 -50 -3 -14 -8 -47 -11 -75 -3 -27 -7 -61 -10 -75 -9
-43 -13 -384 -4 -399 4 -8 4 -27 0 -43 -5 -15 -6 -28 -2 -28 7 0 13 -41 15
-112 1 -21 5 -38 8 -38 3 0 6 -6 7 -12 2 -29 10 -83 12 -85 3 -3 4 -6 14 -53
14 -68 48 -176 83 -270 35 -93 111 -260 122 -270 3 -3 17 -25 30 -50 44 -83
161 -253 229 -333 81 -95 311 -313 361 -341 9 -5 18 -12 21 -16 12 -16 205
-140 213 -137 5 1 19 21 31 42 11 22 24 41 29 43 4 2 7 10 7 18 0 8 5 14 10
14 6 0 10 5 10 11 0 6 17 39 38 73 20 33 43 72 50 86 7 14 18 34 25 45 7 11
23 38 35 60 12 22 34 58 47 80 14 22 28 47 32 55 4 8 17 32 30 52 25 41 31 88
10 88 -7 0 -22 7 -32 15 -11 8 -43 32 -71 52 -83 62 -134 105 -183 156 -100
105 -111 118 -111 122 0 5 -25 37 -47 60 -7 8 -13 18 -13 24 0 6 -4 11 -10 11
-5 0 -10 7 -10 15 0 8 -4 15 -9 15 -5 0 -11 8 -14 18 -6 18 -38 74 -48 82 -3
3 -25 50 -48 105 -47 109 -86 231 -96 298 -4 23 -8 44 -11 48 -8 13 -18 148
-18 249 0 150 8 222 40 360 9 36 17 72 19 80 2 8 4 16 5 18 2 1 3 5 4 10 1 4
7 23 15 42 52 131 84 200 94 200 4 0 7 7 7 14 0 33 146 231 243 331 57 58 106
105 110 105 4 0 15 8 25 18 30 28 62 52 62 47 0 -4 9 3 62 48 12 9 27 17 35
17 11 0 13 74 13 415 0 448 3 429 -54 400z"/>
<path d="M9080 7505 c0 -281 3 -415 10 -415 6 0 16 -5 23 -10 7 -6 49 -37 94
-70 87 -62 246 -215 279 -266 10 -16 24 -33 31 -37 7 -4 13 -15 13 -22 0 -8 5
-15 10 -15 6 0 14 -8 17 -17 4 -10 17 -32 30 -49 13 -17 23 -34 23 -38 0 -5 8
-20 18 -34 10 -15 33 -61 51 -102 18 -41 37 -84 41 -95 15 -32 51 -151 54
-177 2 -12 6 -30 9 -38 4 -8 9 -35 12 -60 4 -25 9 -63 12 -85 13 -93 6 -376
-11 -426 -3 -8 -7 -27 -10 -44 -9 -55 -26 -120 -43 -165 -3 -8 -7 -19 -8 -25
-7 -28 -51 -128 -83 -190 -116 -224 -282 -412 -485 -550 -60 -40 -87 -65 -87
-78 0 -11 22 -56 49 -101 26 -45 59 -101 73 -126 14 -25 48 -84 77 -132 28
-48 51 -91 51 -97 0 -6 5 -11 10 -11 6 0 10 -4 10 -10 0 -15 91 -160 100 -160
10 0 230 147 245 164 6 6 26 23 46 38 20 15 55 45 79 67 24 23 47 41 50 41 4
0 13 11 20 25 7 14 15 23 17 21 3 -2 23 17 46 42 23 25 49 53 57 62 8 9 29 33
45 55 17 21 38 47 48 57 9 10 17 23 17 28 0 6 4 10 8 10 4 0 16 15 27 33 10
17 21 34 25 37 7 6 105 163 105 170 1 3 7 16 15 30 35 63 80 156 80 168 0 6 5
12 10 12 6 0 9 3 8 8 -1 4 8 34 21 67 13 33 24 65 26 70 1 6 5 17 8 25 15 35
57 196 62 232 3 22 8 44 11 49 7 11 15 66 30 204 14 120 8 456 -10 551 -2 11
-7 39 -11 64 -4 25 -9 54 -12 65 -2 11 -7 37 -10 58 -3 20 -9 37 -12 37 -4 0
-8 11 -9 25 -2 31 -45 165 -84 265 -35 89 -120 264 -130 268 -5 2 -8 8 -8 14
0 11 -123 200 -145 222 -8 8 -15 18 -15 21 0 4 -23 35 -52 69 -79 93 -338 348
-338 332 0 -3 -12 6 -26 19 -24 22 -85 66 -159 115 -91 60 -284 158 -381 195
-37 14 -68 25 -70 25 -2 0 -4 -187 -4 -415z"/>
<path d="M4000 7512 c-142 -37 -279 -143 -334 -258 -34 -72 -46 -102 -55 -144
-7 -29 -10 -439 -8 -1185 l2 -1140 29 -70 c72 -174 204 -289 380 -330 51 -12
271 -15 1416 -15 896 0 1377 4 1420 11 79 12 188 64 254 121 79 68 151 194
171 298 3 19 7 96 9 170 3 145 3 147 54 111 27 -19 149 -98 449 -291 90 -58
234 -151 320 -207 87 -56 191 -123 231 -149 90 -57 144 -67 195 -35 72 44 67
-74 67 1558 0 1407 -1 1470 -18 1503 -25 47 -77 75 -124 66 -21 -4 -126 -65
-254 -147 -121 -78 -352 -227 -514 -332 -162 -104 -318 -205 -346 -224 -28
-18 -53 -33 -55 -33 -3 0 -4 57 -4 128 0 151 -13 221 -62 322 -65 134 -199
239 -348 275 -50 12 -283 14 -1435 14 -1263 0 -1380 -1 -1440 -17z m2871 -275
c71 -34 124 -99 139 -171 8 -36 10 -371 8 -1146 -3 -1060 -4 -1096 -22 -1134
-27 -53 -80 -104 -135 -129 -46 -21 -49 -21 -1396 -23 -815 -1 -1366 2 -1390
8 -22 5 -54 16 -72 24 -41 18 -108 95 -125 142 -19 54 -19 2230 0 2284 27 76
115 151 197 168 16 3 639 6 1385 5 l1355 0 56 -28z m1465 -1293 c0 -657 -1
-1194 -3 -1194 -2 0 -41 24 -86 53 -286 187 -365 237 -390 252 -9 5 -142 91
-295 189 l-277 179 0 523 c0 452 2 525 15 537 8 8 137 92 285 187 149 95 293
187 320 205 246 160 355 230 385 250 19 12 37 21 40 18 3 -3 5 -542 6 -1199z"/>
<path d="M6700 7120 c0 -5 -7 -10 -15 -10 -8 0 -15 -5 -15 -11 0 -6 -7 -9 -15
-5 -10 3 -15 -1 -15 -12 0 -15 -2 -15 -10 -2 -8 12 -11 11 -17 -9 -6 -23 -7
-23 -21 -5 -13 16 -14 17 -9 2 4 -12 1 -18 -8 -18 -8 0 -15 -6 -15 -12 0 -9
-4 -8 -10 2 -8 13 -10 13 -10 -1 0 -9 -9 -19 -20 -22 -13 -3 -18 -1 -14 6 3 7
-1 4 -10 -7 -8 -10 -20 -15 -27 -10 -8 4 -10 3 -5 -4 5 -8 0 -12 -13 -12 -12
0 -21 -5 -21 -11 0 -5 -4 -7 -10 -4 -5 3 -10 1 -10 -5 0 -6 -4 -8 -10 -5 -5 3
-10 2 -10 -4 0 -6 -7 -7 -17 -4 -11 4 -14 3 -9 -5 4 -7 -3 -14 -19 -18 -13 -3
-23 -10 -20 -14 3 -4 -8 -7 -24 -6 -22 1 -27 -2 -23 -13 3 -9 1 -12 -5 -8 -6
4 -18 1 -26 -7 -11 -11 -17 -12 -26 -3 -8 8 -11 5 -11 -11 0 -12 -5 -22 -11
-22 -5 0 -7 5 -3 11 3 6 -5 4 -18 -5 -14 -9 -29 -13 -33 -9 -5 5 -3 -1 5 -11
14 -18 14 -19 -7 -7 -19 10 -23 9 -23 -4 0 -8 -3 -14 -7 -14 -24 4 -45 -4 -64
-23 -12 -13 -19 -16 -15 -8 6 12 5 11 -6 -1 -7 -9 -21 -15 -30 -13 -9 1 -23
-5 -30 -14 -12 -16 -11 -16 7 -2 18 14 19 14 7 -2 -7 -9 -24 -15 -38 -13 -16
1 -31 -6 -42 -20 -9 -12 -23 -20 -30 -17 -6 2 -12 -1 -12 -7 0 -6 -3 -10 -7
-9 -10 2 -90 -37 -123 -60 -19 -13 -22 -14 -15 -2 4 8 -3 5 -17 -7 -13 -13
-31 -23 -40 -23 -9 0 -21 -7 -28 -15 -6 -8 -15 -14 -18 -13 -4 0 -23 -5 -42
-13 -19 -7 -39 -12 -43 -11 -5 1 -6 -2 -3 -7 6 -10 -22 -25 -40 -22 -7 1 -14
-6 -18 -14 -3 -9 -10 -13 -16 -10 -6 3 -13 -1 -16 -10 -5 -13 -9 -13 -22 -3
-12 10 -14 10 -8 1 4 -8 2 -13 -4 -13 -6 0 -9 -4 -6 -9 7 -11 -13 -9 -32 3 -7
4 -12 4 -11 -1 4 -21 -2 -31 -18 -29 -11 0 -17 -5 -15 -13 3 -12 0 -12 -12 -2
-11 10 -16 9 -23 -1 -12 -19 -49 -47 -38 -29 5 10 -2 8 -23 -4 -17 -10 -29
-21 -27 -24 2 -3 -9 -7 -23 -8 -14 0 -32 -9 -38 -18 -8 -10 -20 -15 -28 -12
-9 4 -15 3 -15 -1 3 -19 -2 -25 -11 -12 -8 13 -10 12 -10 -3 0 -9 -3 -16 -7
-15 -5 1 -21 -4 -36 -10 -16 -7 -34 -9 -40 -5 -7 4 -5 -2 3 -12 9 -11 10 -16
3 -11 -8 4 -13 2 -13 -4 0 -6 -4 -9 -9 -6 -13 8 -42 -4 -36 -15 3 -4 -4 -6
-15 -4 -13 3 -20 -2 -21 -13 0 -10 -3 -12 -5 -5 -3 7 -12 9 -20 6 -7 -3 -11
-9 -8 -14 3 -5 -4 -9 -15 -9 -12 0 -21 -5 -21 -11 0 -5 -5 -7 -10 -4 -6 3 -13
-1 -16 -9 -3 -9 -11 -13 -17 -9 -5 3 -16 -2 -24 -12 -7 -11 -13 -15 -13 -11 0
5 -7 3 -15 -4 -8 -7 -21 -10 -28 -7 -8 3 -14 -4 -15 -19 -1 -19 3 -24 21 -24
18 0 19 -2 7 -11 -12 -9 -10 -10 8 -6 20 5 21 3 11 -9 -7 -8 -8 -14 -3 -13 23
4 55 -2 50 -10 -3 -5 1 -12 10 -15 10 -4 13 -2 8 7 -4 6 2 3 13 -8 11 -11 18
-24 15 -30 -3 -5 1 -4 10 3 13 10 17 10 22 -4 3 -9 13 -14 21 -11 8 4 16 -2
20 -14 4 -10 13 -19 21 -19 8 0 14 -5 14 -10 0 -6 3 -9 8 -9 21 4 34 -3 29
-14 -4 -10 2 -13 18 -9 16 3 27 -2 35 -18 6 -12 18 -19 25 -16 10 3 12 0 8
-11 -5 -13 -3 -13 14 -5 15 9 20 8 20 -3 0 -8 -5 -11 -11 -8 -6 4 -7 2 -3 -3
9 -9 14 -11 48 -13 17 -1 19 -4 10 -15 -10 -12 -9 -14 7 -9 14 3 21 -2 25 -18
5 -20 8 -21 23 -8 16 12 17 12 11 -3 -4 -13 -2 -15 10 -11 11 4 14 2 9 -5 -5
-8 -2 -10 8 -6 28 11 18 -34 -11 -53 -32 -20 -44 -34 -37 -44 2 -5 -4 -6 -15
-4 -15 3 -18 0 -14 -12 4 -11 2 -14 -5 -9 -7 4 -12 2 -12 -4 0 -6 -5 -8 -10
-5 -6 4 -9 1 -8 -7 2 -7 -3 -12 -10 -10 -8 1 -11 -2 -7 -8 3 -5 -1 -13 -9 -16
-9 -3 -13 -10 -10 -15 3 -5 1 -9 -4 -9 -5 0 -36 -27 -69 -60 -33 -32 -63 -57
-66 -54 -3 3 -10 -4 -17 -15 -6 -12 -18 -21 -27 -21 -13 0 -14 -2 -2 -17 11
-13 11 -15 1 -9 -9 5 -26 -6 -51 -33 -21 -23 -44 -41 -51 -41 -7 0 -10 -7 -6
-16 4 -11 2 -15 -8 -11 -8 3 -19 -5 -26 -18 -7 -14 -16 -23 -19 -21 -3 1 -14
-5 -23 -16 -10 -10 -16 -18 -13 -18 3 0 -4 -9 -15 -20 -11 -11 -24 -20 -29
-20 -4 0 -17 -11 -27 -25 -11 -14 -25 -23 -33 -20 -12 5 -12 3 0 -12 7 -10 10
-15 5 -11 -4 3 -27 -13 -51 -37 -24 -24 -46 -41 -49 -38 -3 4 -6 1 -6 -6 0 -7
-5 -9 -12 -5 -9 6 -9 3 0 -9 12 -14 11 -16 -8 -12 -18 4 -20 2 -9 -11 7 -8 8
-14 3 -13 -16 4 -44 -13 -44 -27 0 -7 -6 -11 -14 -8 -8 3 -17 0 -22 -7 -4 -8
-3 -10 4 -5 8 5 10 2 6 -8 -3 -9 -9 -15 -12 -14 -20 2 -32 -3 -29 -14 1 -7 -4
-12 -10 -11 -7 2 -13 -3 -13 -11 0 -8 -7 -17 -16 -20 -8 -3 -12 -11 -8 -17 4
-8 3 -9 -5 -5 -16 10 -44 -21 -37 -41 5 -13 4 -14 -8 -4 -11 9 -15 7 -19 -10
-3 -11 -10 -19 -15 -15 -5 3 -9 -1 -9 -8 0 -10 7 -10 31 3 17 9 33 19 34 24 2
4 8 5 13 1 5 -3 9 -1 9 4 0 9 37 25 53 23 4 -1 7 6 7 15 0 12 3 14 13 6 14
-12 52 10 39 23 -4 4 3 6 15 3 14 -4 21 -2 20 6 -1 6 8 10 21 10 12 -1 21 1
18 3 -3 3 1 11 7 18 9 9 16 10 25 3 10 -8 11 -6 5 8 -6 17 -5 18 12 4 11 -9
16 -10 11 -2 -6 11 5 17 27 13 4 0 7 3 7 9 0 5 7 10 16 10 9 0 12 5 8 12 -4 6
-3 8 4 4 6 -3 17 1 25 9 19 18 31 20 22 3 -4 -7 -1 -6 7 2 13 15 31 22 56 23
6 0 10 3 7 5 -4 5 33 42 43 42 2 0 -2 -8 -9 -17 -7 -10 -2 -8 12 5 14 12 29
19 32 15 4 -3 7 0 7 7 0 7 3 10 6 7 10 -9 46 12 39 23 -4 6 1 7 11 3 12 -5 15
-3 9 6 -6 10 -3 11 13 2 15 -8 23 -8 28 1 5 7 2 8 -7 3 -10 -6 -11 -5 -3 4 6
6 21 13 33 16 13 2 30 12 38 22 8 10 11 11 7 3 -7 -13 -5 -13 9 -2 9 8 21 11
26 7 7 -3 8 0 5 10 -4 9 -3 15 2 14 5 -1 17 1 27 4 9 4 24 9 33 12 8 3 12 10
8 16 -4 8 -3 9 4 5 7 -4 12 -1 12 6 0 10 3 9 10 -2 8 -12 10 -12 16 3 5 15 9
15 22 5 9 -8 13 -8 9 -2 -4 7 1 18 10 25 14 12 16 12 8 -1 -7 -12 -6 -13 7 -3
8 7 19 9 23 5 5 -4 5 -2 2 4 -6 11 54 49 78 49 6 0 16 7 23 15 9 10 11 10 7 2
-6 -11 -3 -12 14 -3 11 7 21 14 21 17 0 3 -5 2 -12 -2 -7 -4 -8 -3 -4 4 4 6
13 9 21 5 8 -3 15 0 15 6 0 6 6 10 13 9 6 -2 11 4 9 12 -3 12 -1 12 9 3 10
-10 15 -9 26 5 9 11 12 12 7 2 -4 -8 5 -4 19 9 15 14 27 21 27 16 0 -5 7 0 16
11 15 19 16 19 9 -1 -6 -18 -4 -18 15 3 12 12 26 19 32 16 7 -4 8 -2 4 4 -4 7
-1 12 8 12 8 0 17 6 19 13 4 10 6 10 6 0 1 -7 6 -13 12 -13 5 0 8 4 5 9 -6 9
59 44 81 44 7 0 12 3 11 6 -2 19 4 24 12 11 8 -13 11 -11 16 8 4 12 11 22 16
22 5 0 6 -5 2 -12 -4 -7 7 -2 24 11 22 15 32 18 33 9 0 -7 5 -2 10 11 6 15 15
21 24 17 8 -3 15 -1 15 5 0 6 5 7 10 4 6 -3 10 -1 10 5 0 6 5 8 10 5 6 -3 10
-1 10 5 0 7 7 9 16 6 8 -3 13 -2 11 2 -3 4 1 13 9 20 11 10 14 10 14 0 1 -9 5
-7 14 4 10 14 15 15 26 5 7 -7 10 -7 8 -2 -7 12 17 37 26 28 3 -4 6 0 6 8 0
11 2 11 10 -1 8 -13 10 -12 10 4 0 13 5 17 20 13 11 -3 18 -2 16 2 -3 4 4 13
16 20 16 10 19 10 13 -1 -4 -8 -1 -7 7 2 7 8 18 15 23 16 32 4 56 18 51 31 -3
8 -2 12 3 8 14 -8 61 13 61 27 0 9 -3 8 -10 -2 -8 -13 -10 -12 -10 3 0 10 -4
15 -10 12 -5 -3 -10 -2 -10 2 0 5 -10 13 -22 18 -13 6 -22 16 -21 22 1 6 -6 9
-16 6 -11 -3 -21 2 -24 11 -4 9 -16 16 -27 16 -12 0 -19 3 -17 8 3 4 -6 15
-19 25 -22 16 -23 16 -17 1 4 -12 3 -15 -5 -10 -7 4 -12 14 -12 22 0 8 -4 13
-9 10 -5 -3 -11 1 -15 9 -3 8 -14 15 -24 15 -10 0 -28 9 -41 21 -12 12 -30 22
-39 24 -9 1 -16 8 -14 14 1 6 -11 14 -28 17 -16 4 -30 10 -30 15 0 5 -6 9 -13
9 -8 0 -24 12 -38 26 -14 15 -31 23 -41 21 -10 -3 -16 -1 -12 4 5 8 -3 11 -22
8 -9 -1 -24 23 -24 39 0 19 58 75 69 67 5 -3 13 0 17 6 5 8 3 9 -6 4 -8 -5
-11 -3 -8 6 3 8 11 13 17 12 6 -2 11 3 11 11 0 7 9 16 20 19 11 3 20 13 20 24
0 15 2 16 10 3 8 -13 10 -13 10 1 0 9 11 22 25 29 13 7 22 17 19 21 -2 4 5 13
16 19 11 6 18 15 15 20 -4 6 2 7 12 3 10 -3 15 -3 11 2 -8 8 28 45 44 45 5 0
6 5 3 10 -3 6 1 10 10 10 9 0 13 5 10 10 -6 9 8 14 27 11 5 0 7 5 5 12 -1 6 4
11 11 9 8 -1 11 2 7 8 -3 5 -1 10 5 10 6 0 8 5 4 12 -5 8 -2 9 9 5 13 -5 17
-1 17 14 0 14 5 19 14 16 9 -4 17 2 21 14 4 10 13 19 21 19 8 0 13 6 12 13 -2
6 3 11 10 9 10 -2 16 10 14 29 -1 4 6 6 16 5 10 0 16 5 14 13 -2 9 3 11 14 7
15 -6 15 -4 3 11 -8 9 -9 14 -2 10 6 -4 14 -3 18 3 4 6 11 8 16 5 5 -3 6 2 2
11 -4 10 -2 15 4 11 11 -7 44 28 35 38 -4 4 0 5 8 3 8 -1 14 3 12 10 -1 6 1
11 5 11 5 -1 15 -1 23 0 13 1 13 2 0 11 -13 8 -12 10 3 10 9 0 17 5 17 11 0 6
6 9 14 6 10 -4 13 0 11 14 -2 11 0 17 5 14 5 -3 15 4 24 16 8 12 19 18 25 14
7 -3 11 -3 10 2 -4 20 2 34 12 28 6 -4 13 2 16 14 3 11 9 18 14 15 5 -3 9 0 9
6 0 6 5 8 12 4 8 -5 9 -2 5 9 -3 10 -2 17 4 17 5 0 20 11 33 25 13 13 27 21
31 17 5 -4 5 2 1 13 -4 11 -4 17 -1 13 10 -10 55 33 48 45 -3 6 -1 7 5 3 6 -3
16 3 22 14 6 11 15 18 20 15 6 -3 7 1 4 9 -7 18 -14 21 -14 6z m-915 -1060 c3
-5 1 -10 -4 -10 -6 0 -11 5 -11 10 0 6 2 10 4 10 3 0 8 -4 11 -10z"/>
<path d="M4998 5873 c7 -3 16 -2 19 1 4 3 -2 6 -13 5 -11 0 -14 -3 -6 -6z"/>
<path d="M4994 5478 l-19 -23 23 19 c21 18 27 26 19 26 -2 0 -12 -10 -23 -22z"/>
</g>
</svg>
